<svg xmlns="http://www.w3.org/2000/svg" xmlns:xlink="http://www.w3.org/1999/xlink" aria-hidden="true" role="img" class="iconify iconify--logos" width="31.88" height="32" preserveAspectRatio="xMidYMid meet" viewBox="0 0 256 257"><defs><linearGradient id="IconifyId1813088fe1fbc01fb466" x1="-.828%" x2="57.636%" y1="7.652%" y2="78.411%"><stop offset="0%" stop-color="#FF00FF"></stop><stop offset="100%" stop-color="#FF8C00"></stop></linearGradient></defs><path fill="url(#IconifyId1813088fe1fbc01fb466)" d="M255.153 37.938L134.897 252.976c-2.483 4.44-8.862 4.466-11.382.048L.875 37.958c-2.746-4.814 1.371-10.646 6.827-10.646h242.671c5.451 0 9.559 5.832 6.78 10.626z"></path><path fill="#FFF" d="M185.432.063L96.44 17.501a6.347 6.347 0 0 0-5.369 5.834l-5.447 46.617a6.348 6.348 0 0 0 6.664 7.237l34.772-4.144a6.347 6.347 0 0 0 5.764-4.993l10.694-52.202a6.348 6.348 0 0 0-7.298-7.242z"></path><path fill="#FFF" d="M185.432.063L96.44 17.501a6.347 6.347 0 0 0-5.369 5.834l-5.447 46.617a6.348 6.348 0 0 0 6.664 7.237l34.772-4.144a6.347 6.347 0 0 0 5.764-4.993l10.694-52.202a6.348 6.348 0 0 0-7.298-7.242z" transform="translate(63.002 230.')(skewY(-30.293)(scaleX(1.005))"></path></svg>